<svg width="34" height="34" viewBox="0 0 34 34" fill="none" xmlns="http://www.w3.org/2000/svg">
<path d="M17 2.83337C14.1981 2.83337 11.4591 3.66423 9.12941 5.22089C6.79971 6.77754 4.98393 8.99007 3.91169 11.5787C2.83945 14.1673 2.5589 17.0158 3.10553 19.7638C3.65215 22.5119 5.0014 25.0361 6.98264 27.0174C8.96388 28.9986 11.4881 30.3479 14.2362 30.8945C16.9843 31.4411 19.8327 31.1606 22.4213 30.0883C25.01 29.0161 27.2225 27.2003 28.7791 24.8706C30.3358 22.5409 31.1667 19.8019 31.1667 17C31.1667 15.1396 30.8002 13.2975 30.0883 11.5787C29.3763 9.85991 28.3328 8.29819 27.0173 6.98269C25.7018 5.6672 24.1401 4.62369 22.4213 3.91175C20.7026 3.19981 18.8604 2.83337 17 2.83337ZM17 28.3334C14.7585 28.3334 12.5673 27.6687 10.7035 26.4234C8.83977 25.178 7.38715 23.408 6.52935 21.3371C5.67156 19.2662 5.44712 16.9875 5.88442 14.789C6.32172 12.5906 7.40111 10.5712 8.98611 8.98616C10.5711 7.40117 12.5905 6.32177 14.789 5.88447C16.9874 5.44718 19.2662 5.67161 21.3371 6.52941C23.408 7.3872 25.178 8.83982 26.4233 10.7036C27.6686 12.5673 28.3333 14.7585 28.3333 17C28.3333 20.0058 27.1393 22.8885 25.0139 25.0139C22.8885 27.1393 20.0058 28.3334 17 28.3334Z" fill="currentColor"/>
<path d="M22.6667 15.5834H18.4167V11.3334C18.4167 10.9577 18.2674 10.5973 18.0017 10.3316C17.736 10.066 17.3757 9.91671 17 9.91671C16.6243 9.91671 16.2639 10.066 15.9983 10.3316C15.7326 10.5973 15.5833 10.9577 15.5833 11.3334V17C15.5833 17.3758 15.7326 17.7361 15.9983 18.0018C16.2639 18.2675 16.6243 18.4167 17 18.4167H22.6667C23.0424 18.4167 23.4027 18.2675 23.6684 18.0018C23.9341 17.7361 24.0833 17.3758 24.0833 17C24.0833 16.6243 23.9341 16.264 23.6684 15.9983C23.4027 15.7326 23.0424 15.5834 22.6667 15.5834Z" fill="currentColor"/>
</svg>
