<svg width="32" height="23" viewBox="0 0 32 23" fill="none" xmlns="http://www.w3.org/2000/svg">
<path d="M10.24 11.418L1.40047 2.68904C1.25188 2.54231 1 2.64757 1 2.8564V20.4525C1 20.6622 1.25371 20.7671 1.40178 20.6186L10.2413 11.7515C10.3333 11.6592 10.3327 11.5096 10.24 11.418Z" fill="currentColor" stroke="currentColor" stroke-width="0.0588007"/>
<path d="M21.8655 11.3595L30.705 2.63045C30.8536 2.48371 31.1055 2.58897 31.1055 2.7978V20.3939C31.1055 20.6037 30.8518 20.7085 30.7037 20.56L21.8642 11.6929C21.7722 11.6006 21.7728 11.451 21.8655 11.3595Z" fill="currentColor" stroke="currentColor" stroke-width="0.0588007"/>
<path d="M29.2178 1H2.88839C2.67909 1 2.57404 1.25285 2.72172 1.40116L15.4135 14.1472C15.7818 14.5171 16.3808 14.5164 16.7483 14.1458L29.3848 1.4008C29.532 1.25235 29.4268 1 29.2178 1Z" fill="currentColor" stroke="currentColor" stroke-width="0.0588007"/>
<path d="M14.3416 15.4976L11.625 12.8883C11.602 12.8661 11.5654 12.8665 11.5427 12.8891L2.79486 21.637C2.60965 21.8222 2.74083 22.1389 3.00276 22.1389H29.1297C29.3919 22.1389 29.523 21.8218 29.3373 21.6367L20.5619 12.889C20.5393 12.8664 20.5028 12.8661 20.4797 12.8882L17.7631 15.4976C16.8073 16.4156 15.2973 16.4156 14.3416 15.4976Z" fill="currentColor" stroke="currentColor" stroke-width="0.0588007"/>
</svg>
