<svg width="26" height="26" viewBox="0 0 26 26" fill="none" xmlns="http://www.w3.org/2000/svg">
<path d="M10.4508 12.151C10.2481 11.9484 9.97324 11.8345 9.68663 11.8345C9.40002 11.8345 9.12514 11.9484 8.92248 12.151C8.71981 12.3537 8.60596 12.6286 8.60596 12.9152C8.60596 13.2018 8.71981 13.4767 8.92248 13.6793L12.1513 16.9081C12.2518 17.0079 12.3711 17.0868 12.5022 17.1404C12.6334 17.1939 12.7738 17.2211 12.9154 17.2202C13.0628 17.2156 13.2076 17.1807 13.3409 17.1177C13.4742 17.0548 13.5931 16.9651 13.6903 16.8543L21.2242 8.24418C21.3982 8.02821 21.482 7.75342 21.4583 7.47711C21.4346 7.2008 21.3052 6.9443 21.097 6.7611C20.8888 6.57789 20.618 6.48212 20.3409 6.49375C20.0638 6.50537 19.8019 6.62351 19.6098 6.82351L12.9154 14.5726L10.4508 12.151Z" fill="currentColor"/>
<path d="M22.6016 11.839C22.3162 11.839 22.0424 11.9524 21.8406 12.1542C21.6388 12.3561 21.5254 12.6298 21.5254 12.9152C21.5254 15.1988 20.6182 17.3888 19.0035 19.0035C17.3888 20.6182 15.1988 21.5254 12.9153 21.5254C11.2148 21.5246 9.55274 21.0204 8.13853 20.0762C6.72431 19.1321 5.62131 17.7904 4.96862 16.2202C4.31593 14.6501 4.14276 12.9218 4.47096 11.2534C4.79916 9.58495 5.61404 8.05105 6.81282 6.84511C7.61002 6.03725 8.56033 5.3965 9.60816 4.96037C10.656 4.52423 11.7803 4.30147 12.9153 4.30512C13.6035 4.30943 14.2892 4.38882 14.9602 4.5419C15.1006 4.58533 15.2484 4.59954 15.3945 4.58366C15.5406 4.56777 15.682 4.52212 15.8098 4.44953C15.9376 4.37694 16.0491 4.27894 16.1376 4.16157C16.2261 4.0442 16.2896 3.90996 16.3242 3.76711C16.3588 3.62426 16.3638 3.47584 16.3388 3.33099C16.3139 3.18614 16.2595 3.04794 16.1791 2.92491C16.0987 2.80187 15.994 2.69661 15.8713 2.61561C15.7487 2.53461 15.6107 2.47959 15.466 2.45394C14.6299 2.25725 13.7742 2.15615 12.9153 2.15259C10.7889 2.16363 8.71349 2.80429 6.9509 3.9937C5.18831 5.18312 3.81754 6.86799 3.01158 8.8357C2.20561 10.8034 2.00058 12.9657 2.42234 15.0499C2.8441 17.134 3.87377 19.0465 5.38139 20.546C7.37968 22.5452 10.0886 23.6713 12.9153 23.6779C15.7697 23.6779 18.5072 22.544 20.5256 20.5256C22.544 18.5072 23.6779 15.7697 23.6779 12.9152C23.6779 12.6298 23.5645 12.3561 23.3627 12.1542C23.1608 11.9524 22.8871 11.839 22.6016 11.839Z" fill="currentColor"/>
</svg>
