<svg width="855" height="224" viewBox="0 0 855 224" fill="none" xmlns="http://www.w3.org/2000/svg">
<circle cx="79.4174" cy="56.5101" r="67" transform="rotate(101.946 79.4174 56.5101)" fill="#FFE786"/>
<circle cx="171.857" cy="192.08" r="55.5" transform="rotate(101.946 171.857 192.08)" fill="#FFE786"/>
<circle cx="282.414" cy="109.169" r="37.5" transform="rotate(101.946 282.414 109.169)" fill="#FFE786"/>
<circle cx="810.5" cy="147.592" r="44.5" fill="#FFE786"/>
<path fill-rule="evenodd" clip-rule="evenodd" d="M793.696 86.1527C814.093 80.2267 829 61.4005 829 39.0925C829 12.0306 807.062 -9.90747 780 -9.90747C752.938 -9.90747 731 12.0306 731 39.0925C731 40.2542 731.04 41.4064 731.12 42.5479C733.358 80.2178 723.891 101.271 673.575 111.063C642.014 116.485 618 143.984 618 177.093C618 214.096 647.997 244.093 685 244.093C722.003 244.093 752 214.096 752 177.093C752 172.663 751.57 168.333 750.75 164.143C742 113.934 758.088 97.498 793.696 86.1527Z" fill="#FFE786"/>
<path fill-rule="evenodd" clip-rule="evenodd" d="M246.326 98.9751C237.947 128.637 225.238 144.001 180.131 137.2L226.858 199.507C232.963 154.301 251.271 146.404 282.092 146.668L246.326 98.9751Z" fill="#FFE786"/>
<path fill-rule="evenodd" clip-rule="evenodd" d="M187.603 138.86C151.547 128.193 138.219 112.114 145.54 67.3158L65.3257 122.011C109.703 131.558 119.802 149.838 116.564 187.299L187.603 138.86Z" fill="#FFE786"/>
<path fill-rule="evenodd" clip-rule="evenodd" d="M258.367 -14.0784C275.755 -20.038 294.509 -12.4861 303.203 2.98431C318.631 29.0869 334.804 40.4797 376.102 22.9388C377.504 22.3249 378.944 21.7637 380.418 21.2584C409.414 11.3202 440.976 26.7696 450.914 55.7655C460.181 82.8013 447.376 112.068 422.098 123.957C388.752 140.314 378.439 158.393 392.902 201.101C404.784 236.06 386.137 274.061 351.188 286.039C316.184 298.037 278.082 279.386 266.084 244.382C254.39 210.261 271.816 173.196 305.123 160.236C345.606 144.143 353.448 125.245 345.563 91.2719C328.667 52.5556 309.31 49.8242 280.547 57.5332C261.565 62.8161 241.523 52.4359 235.052 33.5544C228.337 13.9625 238.776 -7.36338 258.367 -14.0784ZM480.428 72.4233C488.397 95.6723 512.645 108.423 534.587 100.902C556.53 93.381 567.859 68.4371 559.89 45.1881C551.922 21.9391 527.674 9.18885 505.731 16.7096C483.788 24.2304 472.46 49.1743 480.428 72.4233ZM557.33 206.132C578 199 591.121 180.249 591.027 160.643L591.036 160.649C590.626 125.312 600.568 105.438 648.77 96.5452C653.94 95.9818 659.145 94.8322 664.295 93.0552C699.274 80.9848 718.429 44.5367 707.08 11.6459C695.73 -21.2449 658.173 -38.1231 623.194 -26.0528C592.29 -15.3885 573.737 14.305 577.662 43.7617L577.516 43.6605C583.976 91.5756 567.723 107.307 532.528 117.661C530.788 118.067 529.049 118.568 527.32 119.164C501.738 127.992 487.718 154.617 496.005 178.632C504.292 202.648 531.748 214.96 557.33 206.132Z" fill="#FFE786"/>
</svg>
