<svg width="675" height="390" viewBox="0 0 675 390" fill="none" xmlns="http://www.w3.org/2000/svg">
<circle cx="51.1474" cy="239.148" r="67" transform="rotate(92.7591 51.1474 239.148)" fill="#A348FF"/>
<circle cx="164.047" cy="358.22" r="55.5" transform="rotate(92.7591 164.047 358.22)" fill="#A348FF"/>
<circle cx="259.947" cy="258.721" r="37.5" transform="rotate(92.7591 259.947 258.721)" fill="#A348FF"/>
<circle cx="173.5" cy="247.5" r="28.5" fill="#A348FF"/>
<circle cx="429.5" cy="293.5" r="28.5" fill="#A348FF"/>
<path fill-rule="evenodd" clip-rule="evenodd" d="M659.696 297.06C680.093 291.134 695 272.308 695 250C695 222.938 673.062 201 646 201C618.938 201 597 222.938 597 250C597 251.162 597.04 252.314 597.12 253.455C599.358 291.125 589.891 312.178 539.575 321.97C508.014 327.392 484 354.892 484 388C484 425.003 513.997 455 551 455C588.003 455 618 425.003 618 388C618 383.57 617.57 379.241 616.75 375.051C608 324.842 624.088 308.405 659.696 297.06Z" fill="#A348FF"/>
<path fill-rule="evenodd" clip-rule="evenodd" d="M222.695 254.419C219.159 285.038 209.066 302.234 163.452 302.723L219.527 356.77C218.336 311.169 235.149 300.45 265.617 295.789L222.695 254.419Z" fill="#A348FF"/>
<path fill-rule="evenodd" clip-rule="evenodd" d="M171.093 303.169C133.796 298.394 118.072 284.65 118.147 239.257L47.694 306.058C93.0261 308.397 105.915 324.83 108.698 362.328L171.093 303.169Z" fill="#A348FF"/>
<path fill-rule="evenodd" clip-rule="evenodd" d="M1.9641 58.825C13.5423 80.5035 39.5148 89.2188 59.9755 78.2911C80.4361 67.3634 87.6368 40.9308 76.0587 19.2523C64.4805 -2.42624 38.5079 -11.1415 18.0473 -0.213832C-2.41337 10.7139 -9.61405 37.1464 1.9641 58.825ZM328.361 -21.4186C296.159 -39.494 284.647 -80.2345 302.656 -112.497C320.691 -144.808 361.504 -156.38 393.814 -138.345C425.313 -120.763 437.103 -81.5319 420.964 -49.6357C401.596 -10.6265 408.385 8.67326 436.943 28.6858C475.363 46.2044 491.595 35.3231 507.843 10.396C518.432 -6.2396 540.298 -11.9162 557.737 -2.18174C575.821 7.91252 582.299 30.7557 572.204 48.8399C563.243 64.8934 544.236 71.8002 527.43 66.0875C498.516 56.972 478.873 59.3033 459.858 99.9488C459.225 101.339 458.531 102.714 457.773 104.071C442.834 130.835 409.026 140.422 382.261 125.482C357.311 111.556 347.29 81.2327 358.147 55.5035C372.044 21.0488 367.649 0.704497 328.361 -21.4186ZM385.432 323.864C402.835 356.497 390.503 397.063 357.877 414.489C325.237 431.921 284.646 419.593 267.213 386.953C250.219 355.134 261.508 315.757 292.327 297.647C329.711 275.3 334.434 255.393 321.227 223.118C298.368 187.599 278.824 187.99 251.665 200.189C233.769 208.44 212.322 201.393 202.918 183.785C193.161 165.517 200.061 142.798 218.329 133.041C234.544 124.381 254.264 128.843 265.315 142.728C284.713 166.032 302.498 174.695 340.468 150.783C341.753 149.954 343.083 149.171 344.457 148.437C371.494 133.997 405.118 144.209 419.558 171.246C433.019 196.45 425.058 227.378 402.015 243.154C371.724 264.608 364.408 284.084 385.432 323.864ZM509.365 202.445C488.904 213.372 462.931 204.657 451.353 182.978C439.775 161.3 446.976 134.867 467.436 123.94C487.897 113.012 513.87 121.727 525.448 143.406C537.026 165.084 529.825 191.517 509.365 202.445ZM127.891 177.981C149.755 177.769 168.144 164.145 174.27 145.52L174.277 145.529C185.089 111.884 200.819 96.1874 249.354 103.033C254.436 104.138 259.738 104.698 265.185 104.645C302.187 104.285 331.908 75.7894 331.571 40.9971C331.233 6.20485 300.963 -21.7086 263.962 -21.3494C231.271 -21.0319 204.262 1.24904 198.646 30.4308L198.54 30.2882C189.478 77.7806 169.075 87.5474 132.412 86.2104C130.633 86.0444 128.827 85.9678 126.998 85.9856C99.937 86.2483 78.2 107.055 78.4466 132.459C78.6933 157.863 100.83 178.244 127.891 177.981ZM574.618 252.408C577.841 271.747 567.882 292.352 548.616 302.693C524.772 315.492 495.702 307.721 483.687 285.337C471.672 262.953 481.261 234.431 505.105 221.633C506.717 220.767 508.353 219.996 510.006 219.317C543.097 203.476 556.63 185.352 542.603 139.083L542.763 139.16C534.186 110.707 547.759 78.4326 576.565 62.9709C609.168 45.4707 648.938 56.1361 665.393 86.7929C681.849 117.45 668.758 156.489 636.155 173.989C631.355 176.565 626.4 178.531 621.387 179.913C575.222 196.388 568.581 217.594 574.628 252.412L574.618 252.408Z" fill="#A348FF"/>
</svg>
