<svg width="1361" height="112" viewBox="0 0 1361 112" fill="none" xmlns="http://www.w3.org/2000/svg">
<path fill-rule="evenodd" clip-rule="evenodd" d="M747.976 78.1994C727.515 89.1271 701.542 80.4118 689.964 58.7333C678.386 37.0547 685.587 10.6222 706.047 -0.305527C726.508 -11.2332 752.481 -2.51794 764.059 19.1606C775.637 40.8391 768.436 67.2717 747.976 78.1994ZM990.656 -112.589C972.647 -80.3262 984.159 -39.5857 1016.36 -21.5102C1055.65 0.612808 1060.04 20.9571 1046.15 55.4118C1035.29 81.141 1045.31 111.464 1070.26 125.39C1097.03 140.33 1130.83 130.744 1145.77 103.979C1146.53 102.622 1147.23 101.247 1147.86 99.8571C1166.87 59.2116 1186.52 56.8803 1215.43 65.9958C1232.24 71.7085 1251.24 64.8017 1260.2 48.7482C1270.3 30.664 1263.82 7.82083 1245.74 -2.27344C1228.3 -12.0079 1206.43 -6.33128 1195.84 10.3043C1179.6 35.2314 1163.36 46.1127 1124.94 28.5941C1096.39 8.58157 1089.6 -10.7182 1108.96 -49.7274C1125.1 -81.6236 1113.31 -120.855 1081.81 -138.437C1049.5 -156.472 1008.69 -144.899 990.656 -112.589ZM1045.88 414.397C1078.5 396.971 1090.83 356.405 1073.43 323.772C1052.41 283.992 1059.72 264.517 1090.01 243.062C1113.06 227.286 1121.02 196.359 1107.56 171.155C1093.12 144.117 1059.49 133.905 1032.46 148.346C1031.08 149.079 1029.75 149.862 1028.47 150.691C990.498 174.603 972.713 165.94 953.315 142.636C942.264 128.751 922.544 124.289 906.33 132.949C888.061 142.706 881.161 165.425 890.918 183.693C900.322 201.302 921.769 208.348 939.665 200.098C966.824 187.898 986.368 187.507 1009.23 223.026C1022.43 255.301 1017.71 275.208 980.328 297.556C949.509 315.665 938.219 355.042 955.214 386.862C972.646 419.501 1013.24 431.829 1045.88 414.397ZM1139.35 182.887C1150.93 204.565 1176.9 213.281 1197.36 202.353C1217.83 191.425 1225.03 164.993 1213.45 143.314C1201.87 121.636 1175.9 112.92 1155.44 123.848C1134.98 134.776 1127.78 161.208 1139.35 182.887ZM862.27 145.429C856.145 164.053 837.756 177.677 815.891 177.89C788.83 178.152 766.693 157.771 766.447 132.367C766.2 106.964 787.937 86.1566 814.998 85.8939C816.827 85.8761 818.633 85.9527 820.412 86.1187C857.075 87.4557 877.478 77.6889 886.54 30.1965L886.647 30.3391C892.262 1.15735 919.271 -21.1236 951.962 -21.4411C988.964 -21.8003 1019.23 6.11316 1019.57 40.9054C1019.91 75.6977 990.187 104.194 953.186 104.553C947.738 104.606 942.436 104.046 937.354 102.941C888.819 96.0957 873.09 111.793 862.277 145.438L862.27 145.429ZM1236.62 302.602C1255.88 292.261 1265.84 271.655 1262.62 252.316L1262.63 252.321C1256.58 217.502 1263.22 196.296 1309.39 179.821C1314.4 178.44 1319.36 176.474 1324.16 173.897C1356.76 156.397 1369.85 117.358 1353.39 86.7012C1336.94 56.0444 1297.17 45.379 1264.56 62.8792C1235.76 78.3409 1222.19 110.616 1230.76 139.068L1230.6 138.991C1244.63 185.26 1231.1 203.385 1198.01 219.225C1196.35 219.904 1194.72 220.676 1193.11 221.541C1169.26 234.34 1159.67 262.861 1171.69 285.245C1183.7 307.63 1212.77 315.4 1236.62 302.602ZM59.9756 78.2912C39.515 89.2189 13.5424 80.5036 1.96422 58.8251C-9.61393 37.1465 -2.41325 10.714 18.0474 -0.21373C38.508 -11.1414 64.4806 -2.42615 76.0588 19.2524C87.6369 40.9309 80.4362 67.3635 59.9756 78.2912ZM302.656 -112.497C284.647 -80.2344 296.159 -39.4939 328.361 -21.4184C367.649 0.704605 372.044 21.0489 358.147 55.5036C347.29 81.2328 357.312 111.556 382.262 125.482C409.026 140.422 442.834 130.836 457.773 104.071C458.531 102.714 459.225 101.339 459.858 99.9489C478.873 59.3034 498.517 56.9721 527.43 66.0876C544.236 71.8003 563.244 64.8935 572.204 48.84C582.299 30.7558 575.822 7.91263 557.737 -2.18164C540.298 -11.9161 518.432 -6.23949 507.843 10.3961C491.595 35.3232 475.363 46.2045 436.943 28.6859C408.385 8.67337 401.596 -10.6264 420.965 -49.6356C437.103 -81.5318 425.313 -120.763 393.814 -138.345C361.504 -156.38 320.691 -144.808 302.656 -112.497ZM357.877 414.489C390.504 397.063 402.835 356.497 385.432 323.864C364.409 284.084 371.724 264.609 402.015 243.154C425.058 227.378 433.019 196.45 419.558 171.246C405.118 144.209 371.494 133.997 344.457 148.437C343.083 149.171 341.753 149.954 340.468 150.783C302.498 174.695 284.713 166.032 265.315 142.728C254.264 128.843 234.544 124.381 218.33 133.041C200.061 142.798 193.161 165.517 202.918 183.785C212.322 201.393 233.769 208.44 251.665 200.189C278.824 187.99 298.368 187.599 321.227 223.118C334.434 255.393 329.711 275.3 292.328 297.647C261.509 315.757 250.219 355.134 267.214 386.953C284.646 419.593 325.237 431.921 357.877 414.489ZM451.353 182.979C462.931 204.657 488.904 213.372 509.365 202.445C529.825 191.517 537.026 165.084 525.448 143.406C513.87 121.727 487.897 113.012 467.436 123.94C446.976 134.867 439.775 161.3 451.353 182.979ZM174.27 145.52C168.145 164.145 149.756 177.769 127.891 177.981C100.83 178.244 78.6934 157.863 78.4467 132.459C78.2001 107.055 99.9371 86.2484 126.998 85.9857C128.827 85.9679 130.633 86.0445 132.412 86.2105C169.075 87.5475 189.478 77.7807 198.54 30.2883L198.647 30.4309C204.262 1.24915 231.271 -21.0318 263.962 -21.3493C300.964 -21.7085 331.233 6.20496 331.571 40.9972C331.909 75.7895 302.187 104.286 265.186 104.645C259.738 104.698 254.436 104.138 249.354 103.033C200.819 96.1875 185.09 111.884 174.277 145.529L174.27 145.52ZM548.616 302.693C567.882 292.352 577.841 271.747 574.618 252.408L574.628 252.413C568.581 217.594 575.222 196.388 621.387 179.913C626.4 178.531 631.355 176.565 636.155 173.989C668.758 156.489 681.849 117.45 665.393 86.793C648.938 56.1362 609.168 45.4708 576.565 62.971C547.759 78.4327 534.186 110.707 542.763 139.16L542.603 139.083C556.63 185.352 543.097 203.476 510.006 219.317C508.353 219.996 506.718 220.767 505.106 221.633C481.261 234.431 471.672 262.953 483.687 285.337C495.702 307.721 524.772 315.492 548.616 302.693Z" fill="#A348FF"/>
</svg>
