<svg width="1370" height="643" viewBox="0 0 1370 643" fill="none" xmlns="http://www.w3.org/2000/svg">
<path fill-rule="evenodd" clip-rule="evenodd" d="M388.831 207.563C371.666 214.364 352.492 207.673 343.037 192.563C326.32 167.094 309.552 156.424 268.929 175.985C267.554 176.665 266.14 177.294 264.689 177.869C236.062 189.212 203.661 175.2 192.319 146.573C181.743 119.88 193.211 89.9046 218.018 76.7815C250.694 58.7988 260.19 40.1763 243.681 -1.96873C230.08 -36.4959 246.996 -75.5319 281.512 -89.2077C316.07 -102.9 355.185 -85.985 368.878 -51.4265C382.224 -17.742 366.491 20.2716 333.684 34.8524C293.817 52.9143 286.84 72.2481 296.357 105.968C315.139 144.017 334.692 145.846 363.186 136.753C381.986 130.552 402.591 140.021 409.977 158.664C417.641 178.006 408.173 199.899 388.831 207.563ZM161.916 131.252C152.822 108.299 127.888 96.65 106.224 105.233C84.5607 113.817 74.3713 139.382 83.4656 162.335C92.5599 185.288 117.494 196.937 139.157 188.353C160.821 179.77 171.01 154.205 161.916 131.252ZM78.4321 0.713332C58.0281 8.84686 45.7469 28.2825 46.7674 47.9515L46.7581 47.9456C48.8394 83.3855 39.802 103.797 -8.14576 114.998C-13.3072 115.808 -18.477 117.208 -23.5611 119.234C-58.0909 132.999 -75.5908 170.478 -62.6481 202.946C-49.7054 235.414 -11.2213 250.577 23.3085 236.812C53.816 224.651 71.03 193.979 65.7004 164.606L65.8513 164.7C57.1055 116.924 72.6722 100.371 107.5 88.3186C109.227 87.8286 110.947 87.2446 112.654 86.5641C137.908 76.4976 150.718 49.1187 141.268 25.4116C131.818 1.7046 103.685 -9.35321 78.4321 0.713332Z" fill="#FFE786"/>
<path fill-rule="evenodd" clip-rule="evenodd" d="M890.698 -14.4617C908.164 -20.4481 927.002 -12.8633 935.736 2.67551C951.237 28.9023 967.485 40.3486 1008.98 22.7193C1010.39 22.1047 1011.83 21.5427 1013.31 21.0366C1042.43 11.053 1074.14 26.573 1084.12 55.7014C1093.43 82.8625 1080.57 112.265 1055.17 124.207C1021.69 140.634 1011.33 158.789 1025.83 201.664C1037.8 236.792 1019.06 274.99 983.943 287.027C948.779 299.079 910.503 280.344 898.45 245.179C886.703 210.905 904.206 173.673 937.662 160.651C978.334 144.484 986.214 125.499 978.292 91.3695C961.32 52.4788 941.875 49.7331 912.984 57.4756C893.914 62.7859 873.777 52.3582 867.276 33.3887C860.53 13.7073 871.017 -7.71603 890.698 -14.4617ZM1113.77 72.4354C1121.78 95.7906 1146.14 108.599 1168.18 101.044C1190.22 93.4888 1201.6 68.431 1193.6 45.0758C1185.59 21.7205 1161.24 8.91202 1139.19 16.4672C1117.15 24.0223 1105.77 49.0801 1113.77 72.4354ZM1191.03 206.755C1211.79 199.59 1224.97 180.754 1224.88 161.058L1224.89 161.065C1224.47 125.566 1234.46 105.602 1282.88 96.6678C1288.08 96.1019 1293.31 94.947 1298.48 93.1617C1333.62 81.0362 1352.86 44.4215 1341.46 11.3804C1330.06 -21.6606 1292.33 -38.616 1257.19 -26.4905C1226.15 -15.7775 1207.51 14.0517 1211.45 43.643L1211.3 43.5412C1217.79 91.6756 1201.47 107.478 1166.11 117.88C1164.36 118.288 1162.62 118.791 1160.88 119.39C1135.18 128.258 1121.1 155.004 1129.42 179.129C1137.75 203.255 1165.33 215.623 1191.03 206.755Z" fill="#FFE786"/>
<path fill-rule="evenodd" clip-rule="evenodd" d="M1315.46 510.395C1270.53 491.947 1265 469.905 1273.68 434.084C1274.2 432.366 1274.63 430.603 1274.98 428.8C1280.15 402.11 1264.03 376.539 1238.98 371.686C1213.92 366.833 1189.42 384.534 1184.25 411.224C1180.07 432.788 1189.79 453.623 1206.9 463.389L1206.89 463.393C1237.84 480.786 1250.13 499.417 1233.66 545.817C1231.55 550.598 1229.94 555.705 1228.89 561.079C1221.83 597.573 1243.91 632.545 1278.23 639.193C1312.54 645.84 1346.09 621.644 1353.16 585.15C1359.41 552.908 1342.89 521.852 1315.29 510.471L1315.46 510.395ZM1342.09 410.593C1317.86 405.847 1294.59 420.538 1290.11 443.405C1285.63 466.273 1301.64 488.657 1325.87 493.403C1350.1 498.149 1373.37 483.458 1377.85 460.591C1382.33 437.723 1366.32 415.338 1342.09 410.593ZM831.76 303.167C849.509 308.253 860.618 325.253 858.889 342.994C856.592 373.372 863.366 392.057 907.485 401.347C908.99 401.647 910.494 402.011 911.995 402.441C941.596 410.922 958.717 441.794 950.235 471.395C942.327 498.996 914.951 515.746 887.29 511.007C850.427 505.316 831.54 514.276 818.904 557.747C808.608 593.396 771.39 613.997 735.702 603.772C699.968 593.533 679.3 556.264 689.539 520.53C699.518 485.701 735.175 465.184 770.063 473.648C812.672 483.666 829.998 472.606 843.033 440.083C851.369 398.478 836.995 385.099 808.872 374.916C790.194 368.358 779.646 348.283 785.17 329.005C790.901 309.005 811.76 297.437 831.76 303.167Z" fill="#FFE786"/>
<circle cx="1130.75" cy="297.626" r="67" transform="rotate(44.5646 1130.75 297.626)" fill="#FFE786"/>
<circle cx="1294.77" cy="292.843" r="55.5" transform="rotate(44.5646 1294.77 292.843)" fill="#FFE786"/>
<circle cx="1284.53" cy="155.031" r="37.5" transform="rotate(44.5646 1284.53 155.031)" fill="#FFE786"/>
<path fill-rule="evenodd" clip-rule="evenodd" d="M1256.49 179.932C1276.95 202.978 1283.04 221.965 1253 256.292L1330.67 250.521C1295.88 221.011 1299.1 201.333 1315.94 175.515L1256.49 179.932Z" fill="#FFE786"/>
<path fill-rule="evenodd" clip-rule="evenodd" d="M1258.43 250.893C1230.01 275.512 1209.28 278.071 1175.49 247.756L1178.32 344.802C1210.29 312.571 1231.13 313.918 1260.93 336.839L1258.43 250.893Z" fill="#FFE786"/>
<circle cx="829.5" cy="233.5" r="30.5" fill="#FFE786"/>
<circle cx="914" cy="109" r="41" fill="#FFE786"/>
</svg>
