<svg width="197" height="29" viewBox="0 0 197 29" fill="none" xmlns="http://www.w3.org/2000/svg">
<g clip-path="url(#clip0_1_1532)">
<path d="M47.6866 9.18134C44.93 9.18134 42.7918 10.6321 41.6067 12.9378L41.2203 9.56994H38V22.5233H41.6067V18.8446C41.6067 15.2176 43.848 13.0155 47.6866 13.0155V9.18134Z" fill="#242424"/>
<path d="M64.23 16.9534C64.2815 16.6684 64.2815 16.3575 64.2815 16.0725C64.2815 11.9534 60.984 9.18134 56.5786 9.18134C52.1218 9.18134 48.8242 12.1088 48.8242 16.0725C48.8242 19.9845 52.1476 22.9119 56.5786 22.9119C60.1081 22.9119 62.8646 21.2021 63.8436 18.5596H60.1853C59.5155 19.4922 58.2789 20.0622 56.7332 20.0622C54.5692 20.0622 52.9204 18.8187 52.534 16.9534H64.23ZM52.534 15.1399C52.9204 13.3264 54.4919 12.1088 56.5786 12.1088C58.6911 12.1088 60.2111 13.3005 60.5718 15.1399H52.534Z" fill="#242424"/>
<path d="M82.3932 22.5233V9.56994H79.1987L78.8381 11.2798C77.5242 9.93263 75.6178 9.18134 73.4538 9.18134C69.1515 9.18134 65.957 12.1088 65.957 16.0725C65.957 19.9845 69.1772 22.9119 73.4538 22.9119C75.6435 22.9119 77.5242 22.1347 78.8381 20.8135L79.1987 22.5233H82.3932ZM69.5637 16.0725C69.5637 13.9223 71.5216 12.3679 74.2266 12.3679C76.9317 12.3679 78.7865 13.8964 78.7865 16.0725C78.7865 18.2228 76.9574 19.6995 74.2266 19.6995C71.5216 19.6995 69.5637 18.171 69.5637 16.0725Z" fill="#242424"/>
<path d="M89.3069 4.38861H85.7002V22.5233H89.3069V4.38861Z" fill="#242424"/>
<path d="M113.591 16.9534C113.643 16.6684 113.643 16.3575 113.643 16.0725C113.643 11.9534 110.345 9.18134 105.94 9.18134C101.483 9.18134 98.1855 12.1088 98.1855 16.0725C98.1855 19.9845 101.509 22.9119 105.94 22.9119C109.469 22.9119 112.226 21.2021 113.205 18.5596H109.546C108.877 19.4922 107.64 20.0622 106.094 20.0622C103.93 20.0622 102.281 18.8187 101.895 16.9534H113.591ZM101.895 15.1399C102.281 13.3264 103.853 12.1088 105.94 12.1088C108.052 12.1088 109.572 13.3005 109.933 15.1399H101.895Z" fill="#242424"/>
<path d="M119.723 16.487C119.723 14.1554 121.269 12.5233 123.562 12.5233C125.855 12.5233 127.504 14.1554 127.504 16.487V22.5233H131.11V16.487C131.11 12.1606 128.405 9.18134 124.541 9.18134C122.531 9.18134 120.831 10.1399 119.698 11.6943L119.337 9.56994H116.117V22.5233H119.723V16.487Z" fill="#242424"/>
<path d="M146.387 22.1606C146.387 24.3627 144.61 25.8394 142.034 25.8394C140.101 25.8394 138.504 25.0104 137.68 23.715H134.073C134.898 26.7979 137.989 29 142.137 29C146.671 29 149.994 26.1244 149.994 22.1606V9.56994H146.8L146.439 11.2021C145.125 9.90673 143.244 9.18134 141.055 9.18134C136.752 9.18134 133.558 11.9793 133.558 15.8653C133.558 19.6736 136.778 22.4456 141.055 22.4456C143.193 22.4456 145.074 21.7202 146.387 20.4767V22.1606ZM137.165 15.8394C137.165 13.7927 139.123 12.3679 141.828 12.3679C144.533 12.3679 146.387 13.7927 146.387 15.8394C146.387 17.8601 144.558 19.2591 141.828 19.2591C139.123 19.2591 137.165 17.8083 137.165 15.8394Z" fill="#242424"/>
<path d="M156.907 4.38861H153.301V22.5233H156.907V4.38861Z" fill="#242424"/>
<path d="M160.401 5.65803C160.401 6.6943 161.071 7.34197 162.102 7.34197C163.081 7.34197 163.751 6.6943 163.751 5.65803C163.751 4.69948 163.081 4 162.102 4C161.071 4 160.401 4.69948 160.401 5.65803ZM163.905 22.5233V9.56995H160.298V22.5233H163.905Z" fill="#242424"/>
<path d="M179.449 18.8446C179.449 13.2487 170.407 16.0466 170.407 13.2746C170.407 12.4197 171.437 11.7979 172.854 11.7979C174.554 11.7979 175.482 12.5233 175.636 13.5596H179.243C179.037 10.8653 176.744 9.18134 172.88 9.18134C169.118 9.18134 166.8 11.0207 166.8 13.3005C166.8 18.5078 175.817 15.9948 175.817 18.8446C175.817 19.6736 174.709 20.3212 173.24 20.3212C171.411 20.3212 170.278 19.6477 170.072 18.5078H166.465C166.748 21.2021 169.376 22.9119 173.24 22.9119C177.002 22.9119 179.449 21.1762 179.449 18.8446Z" fill="#242424"/>
<path d="M185.613 16.487C185.613 14.1554 187.159 12.5233 189.452 12.5233C191.745 12.5233 193.393 14.1554 193.393 16.487V22.5233H197V16.487C197 12.1606 194.295 9.18136 190.431 9.18136C188.447 9.18136 186.747 10.114 185.613 11.6684V4.38861H182.006V22.5233H185.613V16.487Z" fill="#242424"/>
<path d="M164 5.5C164 6.88071 163.105 8 162 8C160.895 8 160 6.88071 160 5.5C160 4.11929 160.895 3 162 3C163.105 3 164 4.11929 164 5.5Z" fill="#8000FF"/>
<path d="M0 0V5.52632H21.7046C21.753 7.42982 20.7101 11.2368 16.1514 11.2368H0V16.8H10.2716L21.3054 28H29L18.0751 16.8C21.1239 16.2105 25.8281 12.6 27.2215 7.07368V4.38421C27.2215 3.75789 26.5682 0 22.5394 0H0Z" fill="#8000FF"/>
<path d="M14.2698 28H0V22.4737H8.82545L14.2698 28Z" fill="#8F1FFF"/>
<path d="M14.2698 28H0V22.4737H8.82545L14.2698 28Z" fill="#8000FF"/>
</g>
<defs>
<clipPath id="clip0_1_1532">
<rect width="197" height="29" fill="white"/>
</clipPath>
</defs>
</svg>
