<svg width="379" height="492" viewBox="0 0 379 492" fill="none" xmlns="http://www.w3.org/2000/svg">
<path fill-rule="evenodd" clip-rule="evenodd" d="M127.415 71.6216C136.644 68.4584 146.598 72.4659 151.214 80.6763C159.405 94.535 167.99 100.584 189.916 91.2706C190.66 90.9451 191.423 90.6476 192.204 90.3796C207.597 85.1041 224.351 93.3052 229.627 108.697C234.546 123.05 227.748 138.587 214.328 144.897C196.629 153.58 191.155 163.176 198.831 185.845C205.14 204.403 195.241 224.577 176.688 230.936C158.107 237.304 137.881 227.404 131.512 208.822C125.305 190.714 134.55 171.043 152.223 164.159C173.723 155.615 177.889 145.583 173.702 127.545C164.735 106.997 154.461 105.544 139.197 109.634C129.118 112.443 118.475 106.933 115.039 96.9069C111.474 86.5068 117.015 75.1862 127.415 71.6216ZM245.294 117.54C249.524 129.881 262.396 136.65 274.044 132.657C285.692 128.665 291.705 115.424 287.475 103.082C283.246 90.741 270.374 83.9727 258.726 87.965C247.077 91.9573 241.064 105.198 245.294 117.54ZM286.116 188.518C297.088 184.732 304.054 174.778 304.004 164.371L304.009 164.374C303.791 145.616 309.068 135.066 334.655 130.345C337.4 130.046 340.163 129.436 342.897 128.493C361.466 122.085 371.634 102.737 365.609 85.2773C359.584 67.8176 339.648 58.858 321.079 65.2654C304.674 70.9264 294.826 86.6889 296.909 102.326L296.832 102.272C300.261 127.706 291.634 136.057 272.953 141.553C272.028 141.769 271.105 142.035 270.186 142.352C256.606 147.038 249.163 161.171 253.563 173.92C257.962 186.668 272.536 193.204 286.116 188.518Z" fill="#FFE786"/>
<path fill-rule="evenodd" clip-rule="evenodd" d="M283.781 418.714C266.13 400.081 268.249 388.262 280.195 372.881C280.819 372.166 281.412 371.412 281.971 370.618C290.25 358.878 288.026 343.061 277.005 335.289C265.984 327.517 250.338 330.734 242.059 342.474C235.37 351.96 235.537 364.108 241.662 372.523L241.656 372.523C252.798 387.615 254.683 399.259 236.683 418.046C234.631 419.893 232.745 422.004 231.078 424.368C219.758 440.421 222.818 462.063 237.913 472.707C253.007 483.351 274.42 478.966 285.74 462.913C295.741 448.73 294.518 430.185 283.687 418.716L283.781 418.714ZM318.257 376.396C307.61 368.856 293.21 370.888 286.093 380.937C278.976 390.985 281.838 405.243 292.484 412.784C303.13 420.325 317.53 418.292 324.647 408.243C331.764 398.195 328.903 383.937 318.257 376.396ZM95.6313 213.969C103.081 220.269 104.748 230.869 100.068 239.044C92.3735 253.185 91.5865 263.659 110.836 277.703C111.494 278.173 112.139 278.674 112.768 279.206C125.193 289.712 126.749 308.301 116.244 320.726C106.445 332.315 89.615 334.448 77.3125 326.159C60.7884 315.429 49.7455 315.655 34.2334 333.859C21.5422 348.806 -0.860407 350.663 -15.8408 337.997C-30.8404 325.314 -32.7188 302.873 -20.0362 287.874C-7.67534 273.255 13.9552 271.1 28.9314 282.742C47.2928 296.81 58.0404 295.238 71.3745 282.391C84.4172 264.144 80.385 254.58 69.0334 243.571C61.4642 236.359 60.7387 224.406 67.5774 216.318C74.6758 207.922 87.236 206.871 95.6313 213.969Z" fill="#FFE786"/>
<circle cx="250.003" cy="260.678" r="35.4044" transform="rotate(74.0846 250.003 260.678)" fill="#FFE786"/>
<circle cx="326.668" cy="301.184" r="29.3275" transform="rotate(74.0846 326.668 301.184)" fill="#FFE786"/>
<circle cx="357.841" cy="235.148" r="19.8159" transform="rotate(74.0846 357.841 235.148)" fill="#FFE786"/>
<path fill-rule="evenodd" clip-rule="evenodd" d="M338.464 239.298C341.875 255.224 339.732 265.54 316.98 273.503L354.196 291.071C345.884 268.445 352.487 260.234 366.951 252.746L338.464 239.298Z" fill="#FFE786"/>
<path fill-rule="evenodd" clip-rule="evenodd" d="M320.881 272.433C301.402 276.354 291.205 272.133 283.562 249.397L259.596 294.758C282.685 288.259 291.917 294.305 299.655 312.606L320.881 272.433Z" fill="#FFE786"/>
<circle cx="44.1169" cy="191.117" r="16.1169" fill="#FFE786"/>
<circle cx="44.1169" cy="469.117" r="16.1169" fill="#FFE786"/>
<circle cx="310.117" cy="233.117" r="16.1169" fill="#FFE786"/>
<circle cx="110.665" cy="147.665" r="21.6654" fill="#FFE786"/>
</svg>
