<svg width="384" height="860" viewBox="0 0 384 860" fill="none" xmlns="http://www.w3.org/2000/svg">
<path fill-rule="evenodd" clip-rule="evenodd" d="M6.57617 384.206C18.2461 384.197 27.9618 392.584 30.0092 403.663C33.9174 422.52 41.2943 432.689 69.719 430.631C70.6856 430.55 71.6633 430.509 72.6506 430.508C92.1139 430.493 107.904 446.259 107.92 465.722C107.934 483.872 94.2242 498.829 76.5904 500.776C53.1909 503.757 43.285 512.507 43.2097 541.163C43.1499 564.592 24.1471 583.577 0.699118 583.595C-22.7972 583.613 -41.8595 564.58 -41.8778 541.084C-41.8957 518.185 -23.8183 499.497 -1.14919 498.545C26.4898 497.194 35.0857 487.45 37.3268 465.415C35.128 438.687 24.0616 433.067 5.20236 431.789C-7.29235 431.069 -17.2072 420.713 -17.2171 408.036C-17.2274 394.885 -6.57474 384.216 6.57617 384.206ZM122.231 481.793C122.243 497.399 134.193 510.041 148.922 510.029C163.651 510.018 175.581 497.357 175.569 481.752C175.557 466.146 163.607 453.504 148.878 453.516C134.149 453.527 122.219 466.187 122.231 481.793ZM140.971 577.928C154.855 577.888 166.591 569.317 170.562 557.518L170.566 557.524C177.578 536.207 187.633 526.309 218.422 530.866C221.644 531.59 225.008 531.968 228.467 531.958C251.963 531.891 270.959 513.926 270.896 491.833C270.833 469.74 251.734 451.884 228.238 451.951C207.479 452.01 190.232 466.041 186.54 484.545L186.473 484.455C180.512 514.57 167.516 520.684 144.245 519.676C143.115 519.563 141.967 519.506 140.804 519.51C123.62 519.559 109.727 532.676 109.774 548.808C109.82 564.939 123.787 577.977 140.971 577.928Z" fill="#FFE786"/>
<path fill-rule="evenodd" clip-rule="evenodd" d="M347.873 741.446C334.51 745.215 325.509 756.624 324.855 769.056L324.849 769.052C323.823 791.468 316.797 803.705 285.916 807.588C282.618 807.756 279.276 808.296 275.946 809.235C253.332 815.613 239.862 838.021 245.859 859.285C251.857 880.549 275.051 892.617 297.665 886.238C317.645 880.603 330.487 862.455 329.072 843.638L329.16 843.708C326.81 813.099 337.685 803.717 360.372 798.435C361.491 798.24 362.612 797.986 363.731 797.671C380.269 793.006 390.127 776.638 385.748 761.112C381.369 745.586 364.412 736.781 347.873 741.446ZM-3.05369 660.235C-25.6677 666.613 -39.1382 689.021 -33.1408 710.285C-27.1434 731.549 -3.94929 743.616 18.6648 737.238C38.6445 731.603 51.4869 713.455 50.0716 694.638L50.1601 694.708C47.8096 664.098 58.6853 654.717 81.3724 649.435C82.4911 649.24 83.6119 648.986 84.7307 648.671C101.269 644.006 111.127 627.638 106.748 612.112C102.369 596.586 85.4114 587.781 68.8728 592.446C55.51 596.215 46.5089 607.624 45.8546 620.056L45.8491 620.052C44.8227 642.468 37.7965 654.705 6.91572 658.588C3.61783 658.756 0.275768 659.296 -3.05369 660.235ZM391.755 829.009C387.55 813.981 372.643 805.015 358.458 808.984C344.274 812.952 336.184 828.353 340.389 843.381C344.594 858.41 359.502 867.376 373.686 863.407C387.87 859.438 395.96 844.038 391.755 829.009ZM409.702 685.752C406.287 673.545 393.957 666.235 381.729 668.895C363.218 672.734 351.047 670.296 341.747 645.139C337.984 623.312 343.646 611.617 369.907 602.888C391.486 595.88 403.876 573.022 397.706 550.97C391.375 528.343 367.9 515.132 345.273 521.463C322.692 527.782 309.489 551.174 315.727 573.758C323.354 601.38 316.164 612.47 294.425 621.628C277.963 628.243 268.777 646.333 273.668 663.811C278.912 682.555 298.358 693.498 317.101 688.254C318.053 687.988 318.984 687.685 319.893 687.348C346.719 677.728 356.557 685.541 365.388 702.654C370.337 712.775 381.949 718.244 393.187 715.099C405.852 711.556 413.246 698.416 409.702 685.752ZM79.4584 659.984C93.6426 656.015 108.55 664.981 112.755 680.01C116.96 695.038 108.87 710.438 94.6858 714.407C80.5016 718.376 65.5942 709.41 61.3892 694.382C57.1843 679.353 65.2741 663.953 79.4584 659.984Z" fill="#FFE786"/>
<path fill-rule="evenodd" clip-rule="evenodd" d="M367.864 151.071C353.929 156.593 338.363 151.162 330.686 138.895C317.113 118.215 303.499 109.552 270.515 125.436C269.4 125.987 268.253 126.497 267.076 126.964C243.834 136.173 217.528 124.797 208.319 101.555C199.733 79.8846 209.043 55.5501 229.18 44.8945C255.722 30.2886 263.429 15.1637 250.004 -19.0816C238.989 -47.1043 252.724 -78.7733 280.734 -89.8714C308.791 -100.988 340.548 -87.2549 351.665 -59.1975C362.503 -31.8422 349.72 -0.970138 323.07 10.8606C290.722 25.5219 285.061 41.2178 292.786 68.5882C308.033 99.4751 323.905 100.964 347.033 93.5858C362.299 88.5439 379.034 96.2319 385.033 111.371C391.255 127.075 383.568 144.849 367.864 151.071ZM183.636 89.1159C176.252 70.4807 156.009 61.0232 138.421 67.9919C120.832 74.9605 112.56 95.7165 119.943 114.352C127.327 132.987 147.57 142.444 165.159 135.476C182.747 128.507 191.019 107.751 183.636 89.1159ZM115.857 -16.866C99.2912 -10.2625 89.3203 5.51682 90.1488 21.4857L90.1413 21.481C91.8312 50.2546 84.4936 66.8267 45.5637 75.9206C41.374 76.5779 37.1774 77.714 33.0504 79.3592C5.01621 90.5343 -9.19162 120.963 1.31633 147.323C11.8243 173.684 43.0689 185.994 71.103 174.819C95.8716 164.946 109.847 140.043 105.52 116.195L105.643 116.272C98.5423 77.4839 111.18 64.0447 139.457 54.2593C140.859 53.8614 142.255 53.3873 143.641 52.8348C164.144 44.662 174.545 22.4335 166.872 3.18617C159.2 -16.0612 136.359 -25.0388 115.857 -16.866Z" fill="#FFE786"/>
<circle cx="363.034" cy="429.479" r="35.2415" transform="rotate(-92.0486 363.034 429.479)" fill="#FFE786"/>
<circle cx="307.649" cy="497.54" r="23.8118" transform="rotate(-92.0486 307.649 497.54)" fill="#FFE786"/>
<path fill-rule="evenodd" clip-rule="evenodd" d="M331.449 498.279C332.057 478.717 337.528 467.299 366.364 464.563L328.006 433.349C331.187 462.139 321.119 469.817 302.088 474.387L331.449 498.279Z" fill="#FFE786"/>
<path fill-rule="evenodd" clip-rule="evenodd" d="M361.505 464.687C385.359 465.723 396.04 473.583 398.408 502.309L439.432 456.292C410.624 457.224 401.594 447.512 397.837 423.933L361.505 464.687Z" fill="#FFE786"/>
</svg>
