<svg width="384" height="213" viewBox="0 0 384 213" fill="none" xmlns="http://www.w3.org/2000/svg">
<circle cx="42.512" cy="198.772" r="55.6883" transform="rotate(92.7591 42.512 198.772)" fill="#A348FF"/>
<circle cx="216.06" cy="215.041" r="31.1688" transform="rotate(92.7591 216.06 215.041)" fill="#A348FF"/>
<circle cx="144.208" cy="205.714" r="23.6883" fill="#A348FF"/>
<path fill-rule="evenodd" clip-rule="evenodd" d="M185.097 211.465C182.159 236.915 173.77 251.208 135.857 251.614L182.465 296.536C181.475 258.634 195.449 249.725 220.773 245.851L185.097 211.465Z" fill="#A348FF"/>
<path fill-rule="evenodd" clip-rule="evenodd" d="M142.208 251.984C111.208 248.016 98.1385 236.592 98.2008 198.863L39.6424 254.386C77.321 256.33 88.0337 269.989 90.3475 301.156L142.208 251.984Z" fill="#A348FF"/>
<path fill-rule="evenodd" clip-rule="evenodd" d="M1.63369 48.8937C11.2571 66.9122 32.8447 74.1561 49.8509 65.0733C66.8572 55.9906 72.8422 34.0206 63.2188 16.0021C53.5954 -2.01643 32.0078 -9.2603 15.0015 -0.17754C-2.00473 8.90522 -7.98971 30.8752 1.63369 48.8937ZM272.969 -17.7769C246.169 -32.7878 236.582 -66.6731 251.558 -93.5041C266.549 -120.359 300.471 -129.978 327.327 -114.988C353.502 -100.377 363.303 -67.78 349.901 -41.2718C333.793 -8.83723 339.434 7.20671 363.175 23.8435C395.134 38.4156 408.621 29.3444 422.137 8.58935C430.951 -5.19769 449.097 -9.89408 463.575 -1.81319C478.606 6.57687 483.989 25.5634 475.599 40.5944C468.152 53.9365 452.356 59.6773 438.387 54.9313C414.349 47.3518 398.019 49.29 382.211 83.0936C381.687 84.2423 381.113 85.3789 380.487 86.5007C368.07 108.747 339.97 116.714 317.724 104.297C296.972 92.7137 288.645 67.4836 297.699 46.0889C309.223 17.4911 305.566 0.591907 272.969 -17.7769ZM297.457 344.51C324.53 330.051 334.79 296.422 320.433 269.321C302.867 236.16 308.934 219.953 334.157 202.093C353.299 188.977 359.91 163.279 348.724 142.335C336.722 119.862 308.775 111.374 286.302 123.377C285.154 123.99 284.042 124.645 282.967 125.339C251.419 145.2 236.64 137.995 220.519 118.626C211.332 107.089 194.944 103.383 181.47 110.579C166.286 118.689 160.551 137.572 168.66 152.757C176.476 167.391 194.299 173.248 209.173 166.393C231.749 156.252 247.994 155.924 266.995 185.449C277.969 212.268 274.049 228.812 243.001 247.38C217.365 262.425 207.97 295.167 222.1 321.624C236.589 348.753 270.328 358.999 297.457 344.51ZM423.368 168.266C406.362 177.349 384.774 170.105 375.151 152.086C365.528 134.068 371.513 112.098 388.519 103.015C405.525 93.9322 427.113 101.176 436.736 119.195C446.359 137.213 440.375 159.183 423.368 168.266ZM106.301 147.933C124.473 147.756 139.758 136.432 144.849 120.953L144.854 120.959C153.841 92.9947 166.915 79.9479 207.256 85.638C211.48 86.556 215.887 87.0214 220.415 86.9775C251.169 86.6789 275.873 62.9939 275.592 34.0756C275.311 5.15735 250.152 -18.0435 219.398 -17.7449C192.226 -17.481 169.777 1.03825 165.11 25.2932L165.021 25.1747C157.489 64.6481 140.531 72.7665 110.059 71.6555C108.58 71.5175 107.079 71.4539 105.558 71.4686C83.0663 71.687 64.9991 88.9811 65.2041 110.096C65.4091 131.211 83.8087 148.151 106.301 147.933ZM477.606 209.794C480.285 225.868 472.006 242.994 455.994 251.589C436.175 262.227 412.013 255.768 402.027 237.163C392.04 218.558 400.01 194.852 419.829 184.214C421.168 183.495 422.527 182.855 423.901 182.29C451.406 169.124 462.655 154.06 450.996 115.602L451.129 115.666C443.999 92.0167 455.281 65.1908 479.224 52.3395C506.322 37.7938 539.378 46.6586 553.055 72.1396C566.732 97.6205 555.852 130.068 528.753 144.614C524.764 146.755 520.646 148.389 516.479 149.538C478.108 163.231 472.587 180.857 477.614 209.798L477.606 209.794Z" fill="#A348FF"/>
</svg>
