<svg width="0" height="0" class="hidden">
  <symbol fill="none" xmlns="http://www.w3.org/2000/svg" viewBox="0 0 31 17" id="ic_arr_ver">
    <path d="M30.3099 1.30528C30.8668 1.9186 30.8211 2.86725 30.2077 3.42413L15.5343 16.7473L1.19716 3.41195C0.590568 2.84774 0.556207 1.89861 1.12042 1.29202C1.68463 0.685421 2.63375 0.65106 3.24035 1.21527L15.5588 12.673L28.1911 1.20309C28.8044 0.646198 29.7531 0.691951 30.3099 1.30528Z" fill="currentColor"></path>
  </symbol>
  <symbol fill="none" xmlns="http://www.w3.org/2000/svg" viewBox="0 0 24 24" id="ic_arrow_ver">
    <path d="M12 5L12 21" stroke="currentColor" stroke-width="2" stroke-linecap="round" stroke-linejoin="round"></path>
    <path d="M18 11L12.4096 4.1978C12.3584 4.13563 12.2955 4.08584 12.225 4.05174C12.1544 4.01764 12.0779 4 12.0005 4C11.9232 4 11.8467 4.01764 11.7761 4.05174C11.7056 4.08584 11.6426 4.13563 11.5915 4.1978L6 11" stroke="currentColor" stroke-width="2" stroke-linecap="round" stroke-linejoin="round"></path>
  </symbol>
  <symbol fill="none" xmlns="http://www.w3.org/2000/svg" viewBox="0 0 22 16" id="ic_menu">
    <rect width="22" height="2" fill="currentColor"></rect>
    <path d="M0 14H22V16H0V14Z" fill="currentColor"></path>
    <path d="M0 7H22V9H0V7Z" fill="currentColor"></path>
  </symbol>
  <symbol fill="none" xmlns="http://www.w3.org/2000/svg" viewBox="0 0 34 34" id="ic_date">
    <path d="M17 2.83337C14.1981 2.83337 11.4591 3.66423 9.12941 5.22089C6.79971 6.77754 4.98393 8.99007 3.91169 11.5787C2.83945 14.1673 2.5589 17.0158 3.10553 19.7638C3.65215 22.5119 5.0014 25.0361 6.98264 27.0174C8.96388 28.9986 11.4881 30.3479 14.2362 30.8945C16.9843 31.4411 19.8327 31.1606 22.4213 30.0883C25.01 29.0161 27.2225 27.2003 28.7791 24.8706C30.3358 22.5409 31.1667 19.8019 31.1667 17C31.1667 15.1396 30.8002 13.2975 30.0883 11.5787C29.3763 9.85991 28.3328 8.29819 27.0173 6.98269C25.7018 5.6672 24.1401 4.62369 22.4213 3.91175C20.7026 3.19981 18.8604 2.83337 17 2.83337ZM17 28.3334C14.7585 28.3334 12.5673 27.6687 10.7035 26.4234C8.83977 25.178 7.38715 23.408 6.52935 21.3371C5.67156 19.2662 5.44712 16.9875 5.88442 14.789C6.32172 12.5906 7.40111 10.5712 8.98611 8.98616C10.5711 7.40117 12.5905 6.32177 14.789 5.88447C16.9874 5.44718 19.2662 5.67161 21.3371 6.52941C23.408 7.3872 25.178 8.83982 26.4233 10.7036C27.6686 12.5673 28.3333 14.7585 28.3333 17C28.3333 20.0058 27.1393 22.8885 25.0139 25.0139C22.8885 27.1393 20.0058 28.3334 17 28.3334Z" fill="currentColor"></path>
    <path d="M22.6667 15.5834H18.4167V11.3334C18.4167 10.9577 18.2674 10.5973 18.0017 10.3316C17.736 10.066 17.3757 9.91671 17 9.91671C16.6243 9.91671 16.2639 10.066 15.9983 10.3316C15.7326 10.5973 15.5833 10.9577 15.5833 11.3334V17C15.5833 17.3758 15.7326 17.7361 15.9983 18.0018C16.2639 18.2675 16.6243 18.4167 17 18.4167H22.6667C23.0424 18.4167 23.4027 18.2675 23.6684 18.0018C23.9341 17.7361 24.0833 17.3758 24.0833 17C24.0833 16.6243 23.9341 16.264 23.6684 15.9983C23.4027 15.7326 23.0424 15.5834 22.6667 15.5834Z" fill="currentColor"></path>
  </symbol>
  <symbol fill="none" xmlns="http://www.w3.org/2000/svg" viewBox="0 0 32 23" id="ic_email">
    <path d="M10.24 11.418L1.40047 2.68904C1.25188 2.54231 1 2.64757 1 2.8564V20.4525C1 20.6622 1.25371 20.7671 1.40178 20.6186L10.2413 11.7515C10.3333 11.6592 10.3327 11.5096 10.24 11.418Z" fill="currentColor" stroke="currentColor" stroke-width="0.0588007"></path>
    <path d="M21.8655 11.3595L30.705 2.63045C30.8536 2.48371 31.1055 2.58897 31.1055 2.7978V20.3939C31.1055 20.6037 30.8518 20.7085 30.7037 20.56L21.8642 11.6929C21.7722 11.6006 21.7728 11.451 21.8655 11.3595Z" fill="currentColor" stroke="currentColor" stroke-width="0.0588007"></path>
    <path d="M29.2178 1H2.88839C2.67909 1 2.57404 1.25285 2.72172 1.40116L15.4135 14.1472C15.7818 14.5171 16.3808 14.5164 16.7483 14.1458L29.3848 1.4008C29.532 1.25235 29.4268 1 29.2178 1Z" fill="currentColor" stroke="currentColor" stroke-width="0.0588007"></path>
    <path d="M14.3416 15.4976L11.625 12.8883C11.602 12.8661 11.5654 12.8665 11.5427 12.8891L2.79486 21.637C2.60965 21.8222 2.74083 22.1389 3.00276 22.1389H29.1297C29.3919 22.1389 29.523 21.8218 29.3373 21.6367L20.5619 12.889C20.5393 12.8664 20.5028 12.8661 20.4797 12.8882L17.7631 15.4976C16.8073 16.4156 15.2973 16.4156 14.3416 15.4976Z" fill="currentColor" stroke="currentColor" stroke-width="0.0588007"></path>
  </symbol>
  <symbol fill="none" xmlns="http://www.w3.org/2000/svg" viewBox="0 0 26 26" id="ic_list_check">
    <path d="M10.4508 12.151C10.2481 11.9484 9.97324 11.8345 9.68663 11.8345C9.40002 11.8345 9.12514 11.9484 8.92248 12.151C8.71981 12.3537 8.60596 12.6286 8.60596 12.9152C8.60596 13.2018 8.71981 13.4767 8.92248 13.6793L12.1513 16.9081C12.2518 17.0079 12.3711 17.0868 12.5022 17.1404C12.6334 17.1939 12.7738 17.2211 12.9154 17.2202C13.0628 17.2156 13.2076 17.1807 13.3409 17.1177C13.4742 17.0548 13.5931 16.9651 13.6903 16.8543L21.2242 8.24418C21.3982 8.02821 21.482 7.75342 21.4583 7.47711C21.4346 7.2008 21.3052 6.9443 21.097 6.7611C20.8888 6.57789 20.618 6.48212 20.3409 6.49375C20.0638 6.50537 19.8019 6.62351 19.6098 6.82351L12.9154 14.5726L10.4508 12.151Z" fill="currentColor"></path>
    <path d="M22.6016 11.839C22.3162 11.839 22.0424 11.9524 21.8406 12.1542C21.6388 12.3561 21.5254 12.6298 21.5254 12.9152C21.5254 15.1988 20.6182 17.3888 19.0035 19.0035C17.3888 20.6182 15.1988 21.5254 12.9153 21.5254C11.2148 21.5246 9.55274 21.0204 8.13853 20.0762C6.72431 19.1321 5.62131 17.7904 4.96862 16.2202C4.31593 14.6501 4.14276 12.9218 4.47096 11.2534C4.79916 9.58495 5.61404 8.05105 6.81282 6.84511C7.61002 6.03725 8.56033 5.3965 9.60816 4.96037C10.656 4.52423 11.7803 4.30147 12.9153 4.30512C13.6035 4.30943 14.2892 4.38882 14.9602 4.5419C15.1006 4.58533 15.2484 4.59954 15.3945 4.58366C15.5406 4.56777 15.682 4.52212 15.8098 4.44953C15.9376 4.37694 16.0491 4.27894 16.1376 4.16157C16.2261 4.0442 16.2896 3.90996 16.3242 3.76711C16.3588 3.62426 16.3638 3.47584 16.3388 3.33099C16.3139 3.18614 16.2595 3.04794 16.1791 2.92491C16.0987 2.80187 15.994 2.69661 15.8713 2.61561C15.7487 2.53461 15.6107 2.47959 15.466 2.45394C14.6299 2.25725 13.7742 2.15615 12.9153 2.15259C10.7889 2.16363 8.71349 2.80429 6.9509 3.9937C5.18831 5.18312 3.81754 6.86799 3.01158 8.8357C2.20561 10.8034 2.00058 12.9657 2.42234 15.0499C2.8441 17.134 3.87377 19.0465 5.38139 20.546C7.37968 22.5452 10.0886 23.6713 12.9153 23.6779C15.7697 23.6779 18.5072 22.544 20.5256 20.5256C22.544 18.5072 23.6779 15.7697 23.6779 12.9152C23.6779 12.6298 23.5645 12.3561 23.3627 12.1542C23.1608 11.9524 22.8871 11.839 22.6016 11.839Z" fill="currentColor"></path>
  </symbol>
  <symbol fill="none" xmlns="http://www.w3.org/2000/svg" viewBox="0 0 18 31" id="ic_slider_arr">
    <path d="M15.9136 2.92188L2.34817 15.809L15.9136 28.0179" stroke="currentColor" stroke-width="4.06962" stroke-linecap="round" stroke-linejoin="round"></path>
  </symbol>
  <symbol fill="none" xmlns="http://www.w3.org/2000/svg" viewBox="0 0 70 81" id="ic_video_play">
    <path d="M68.7373 38.917C69.9552 39.6202 69.9552 41.3789 68.7373 42.082L3.75194 79.6016C2.53404 80.3045 1.0117 79.4248 1.0117 78.0186V2.98047C1.0117 1.57423 2.53404 0.69458 3.75194 1.39746L68.7373 38.917Z" fill="currentColor" stroke="currentColor" stroke-width="0.521973"></path>
  </symbol>
</svg>